<svg width="19" height="14" viewBox="0 0 19 14" fill="none" xmlns="http://www.w3.org/2000/svg">
<path d="M18.5307 1.28062L6.53068 13.2806C6.46102 13.3503 6.3783 13.4057 6.28726 13.4434C6.19621 13.4812 6.09861 13.5006 6.00005 13.5006C5.90149 13.5006 5.80389 13.4812 5.71285 13.4434C5.6218 13.4057 5.53908 13.3503 5.46943 13.2806L0.219426 8.03061C0.0786953 7.88988 -0.000366211 7.69901 -0.000366211 7.49999C-0.000366211 7.30097 0.0786953 7.1101 0.219426 6.96936C0.360156 6.82863 0.551028 6.74957 0.750051 6.74957C0.949074 6.74957 1.13995 6.82863 1.28068 6.96936L6.00005 11.6897L17.4694 0.219364C17.6102 0.0786339 17.801 -0.000427248 18.0001 -0.000427246C18.1991 -0.000427245 18.3899 0.0786339 18.5307 0.219364C18.6714 0.360095 18.7505 0.550967 18.7505 0.74999C18.7505 0.949013 18.6714 1.13988 18.5307 1.28062Z" fill="#378711"/>
</svg>
