<svg width="72" height="75" viewBox="0 0 72 75" fill="none" xmlns="http://www.w3.org/2000/svg">
<rect width="41.721" height="41.721" transform="matrix(0.866401 0.499349 -0.866401 0.499349 36.1475 33.3333)" fill="url(#paint0_linear_83_582)"/>
<rect width="41.721" height="41.721" transform="matrix(0.866401 0.499349 -0.866401 0.499349 36.1475 25)" fill="url(#paint1_linear_83_582)"/>
<rect width="41.721" height="41.721" transform="matrix(0.866401 0.499349 -0.866401 0.499349 36.1475 16.6667)" fill="url(#paint2_linear_83_582)"/>
<rect width="41.721" height="41.721" transform="matrix(0.866401 0.499349 -0.866401 0.499349 36.1475 8.33325)" fill="url(#paint3_linear_83_582)"/>
<rect width="41.721" height="41.721" transform="matrix(0.866401 0.499349 -0.866401 0.499349 36.1475 0)" fill="url(#paint4_linear_83_582)"/>
<defs>
<linearGradient id="paint0_linear_83_582" x1="46.6308" y1="46.1984" x2="9.08191" y2="46.1984" gradientUnits="userSpaceOnUse">
<stop stop-color="#F7F7F7" stop-opacity="0.85"/>
<stop offset="1" stop-color="#3F3F3F" stop-opacity="0.83"/>
</linearGradient>
<linearGradient id="paint1_linear_83_582" x1="46.1093" y1="45.6769" x2="2.68114" y2="47.4115" gradientUnits="userSpaceOnUse">
<stop stop-color="white"/>
<stop offset="1" stop-color="#3F3F3F"/>
</linearGradient>
<linearGradient id="paint2_linear_83_582" x1="45.0663" y1="44.6339" x2="2.681" y2="46.3667" gradientUnits="userSpaceOnUse">
<stop stop-color="white"/>
<stop offset="1" stop-color="#3F3F3F"/>
</linearGradient>
<linearGradient id="paint3_linear_83_582" x1="46.0286" y1="46.8006" x2="1.47953" y2="47.3948" gradientUnits="userSpaceOnUse">
<stop stop-color="white"/>
<stop offset="1" stop-color="#3F3F3F"/>
</linearGradient>
<linearGradient id="paint4_linear_83_582" x1="41.9372" y1="41.5048" x2="-0.00434639" y2="42.0985" gradientUnits="userSpaceOnUse">
<stop stop-color="white"/>
<stop offset="1" stop-color="#3F3F3F"/>
</linearGradient>
</defs>
</svg>
