<svg width="160" height="150" viewBox="0 0 160 150" fill="none" xmlns="http://www.w3.org/2000/svg">
<path d="M34.028 0.077537C34.5823 0.0157488 35.0887 -0.00457103 35.6435 0.00181814C35.8123 0.00128015 35.981 0.000742157 36.1549 0.000187862C36.7236 -0.000853918 37.2921 0.00262192 37.8608 0.00605517C38.2671 0.00623267 38.6735 0.00613329 39.0799 0.00577654C40.1858 0.0055953 41.2917 0.00930684 42.3976 0.0136938C43.5523 0.0176201 44.707 0.0179991 45.8618 0.018747C48.0496 0.0207069 50.2375 0.025878 52.4254 0.0321898C54.9157 0.0392187 57.406 0.0426875 59.8963 0.0458505C65.0201 0.0524385 70.144 0.0635193 75.2679 0.077537C75.3823 0.291897 75.3823 0.291897 75.4991 0.510588C75.8499 1.16729 76.2008 1.82392 76.5518 2.48055C76.6718 2.70531 76.7918 2.93006 76.9155 3.16163C77.8456 4.90175 78.7893 6.63372 79.7416 8.36143C80.6664 10.0403 81.5874 11.7214 82.5079 13.4026C82.9492 14.208 83.3927 15.0121 83.8376 15.8154C84.1454 16.372 84.4522 16.9293 84.7588 17.4866C84.9065 17.7546 85.0548 18.0223 85.2035 18.2897C85.4111 18.6629 85.6169 19.0371 85.8223 19.4115C85.9403 19.625 86.0584 19.8384 86.18 20.0583C86.457 20.643 86.6344 21.0485 86.6658 21.6957C86.4277 22.3162 86.4277 22.3162 86.0554 23.0058C85.9889 23.1309 85.9224 23.256 85.8538 23.3848C85.6352 23.7941 85.4123 24.2009 85.1893 24.6078C85.0354 24.8937 84.8817 25.1797 84.7282 25.4658C83.7328 27.3156 82.7115 29.1508 81.6791 30.9797C80.7535 32.6257 79.8732 34.294 78.9981 35.9678C77.9138 38.0418 76.804 40.0965 75.654 42.134C74.7725 43.702 73.9283 45.289 73.0919 46.8819C72.1478 48.6797 71.1861 50.4646 70.1906 52.2339C68.662 54.973 67.202 57.7509 65.735 60.5244C57.1182 60.5244 48.5013 60.5244 39.6234 60.5244C39.9505 59.6961 40.2968 58.949 40.7089 58.1648C40.7746 58.0398 40.8402 57.9147 40.9078 57.7859C41.1223 57.3778 41.3377 56.9703 41.5533 56.5628C41.6276 56.4219 41.7019 56.281 41.7784 56.1358C42.8274 54.1471 43.9042 52.1773 45.0101 50.2204C46.0596 48.3529 47.0481 46.4543 48.0378 44.5539C49.0727 42.5679 50.1357 40.6031 51.2383 38.6545C52.2038 36.9384 53.1165 35.196 54.0262 33.4492C55.2777 31.0463 56.5616 28.6667 57.8949 26.309C58.5184 25.1986 59.1212 24.0764 59.7252 22.955C55.622 22.955 51.5187 22.955 47.2911 22.955C45.855 25.6562 45.855 25.6562 44.3898 28.412C43.0428 30.8257 43.0428 30.8257 42.3757 32.0128C41.6459 33.3206 40.9446 34.6433 40.2451 35.9678C39.2276 37.8947 38.1831 39.8029 37.1147 41.7011C36.2705 43.2062 35.4558 44.7258 34.6497 46.2522C33.6322 48.179 32.5878 50.0872 31.5194 51.9855C30.6751 53.4906 29.8604 55.0102 29.0544 56.5366C28.0369 58.4634 26.9924 60.3716 25.924 62.2699C25.0798 63.7749 24.2651 65.2946 23.459 66.8209C22.4424 68.746 21.3992 70.6527 20.3314 72.5491C19.3363 74.3227 18.3809 76.1168 17.435 77.9178C15.148 82.2584 15.148 82.2584 14.5479 82.5623C14.4397 82.4273 14.3315 82.2923 14.2201 82.1532C13.3474 81.0681 12.4661 79.9928 11.5689 78.9287C10.7849 77.9976 10.0291 77.0495 9.28931 76.0821C8.36597 74.8762 7.39592 73.7196 6.4036 72.5716C5.5931 71.6333 4.80729 70.6781 4.03234 69.7093C3.30609 68.8096 2.56207 67.9254 1.81913 67.0398C1.64282 66.8291 1.4665 66.6183 1.28485 66.4012C1.18926 66.2984 1.09368 66.1957 0.995195 66.0899C0.184706 65.193 0.00720255 64.4931 0 63.2964C0.148831 60.9938 1.62235 58.948 2.74946 57.0146C3.23777 56.1758 3.70974 55.3284 4.18073 54.4796C4.51116 53.8846 4.84443 53.2913 5.1778 52.698C5.86539 51.4678 6.52966 50.2255 7.19106 48.9807C8.16537 47.1479 9.16339 45.3307 10.1791 43.521C11.0864 41.9021 11.9778 40.2746 12.8641 38.6439C12.9339 38.5155 13.0037 38.3872 13.0755 38.2549C13.1804 38.0621 13.1804 38.0621 13.2873 37.8653C13.4285 37.6056 13.5697 37.3458 13.7109 37.0861C13.7807 36.9576 13.8506 36.8291 13.9226 36.6966C14.6456 35.3673 15.3736 34.0408 16.1022 32.7146C17.1768 30.7579 18.2472 28.7988 19.3143 26.8379C20.769 24.1651 22.2308 21.4964 23.6955 18.8292C24.3424 17.6511 24.9887 16.4726 25.635 15.2942C26.4094 13.8822 27.1839 12.4703 27.9591 11.0588C28.2163 10.5904 28.4734 10.122 28.7306 9.65353C28.9192 9.31 28.9192 9.31 29.1116 8.95952C29.8154 7.67655 30.5169 6.39231 31.2158 5.10658C31.33 4.8965 31.33 4.8965 31.4466 4.68217C31.8168 4.00115 32.1868 3.31996 32.5563 2.63848C32.6899 2.39262 32.8234 2.14676 32.957 1.90091C33.1325 1.57746 33.1325 1.57746 33.3115 1.24748C33.5347 0.848148 33.7767 0.45938 34.028 0.077537Z" fill="url(#paint0_linear_83_652)"/>
<path d="M23.6649 92.6369C24.2514 92.5706 24.7933 92.5457 25.3808 92.5471C25.5603 92.5451 25.7399 92.5431 25.925 92.541C26.5303 92.535 27.1356 92.5336 27.741 92.5321C28.1736 92.5289 28.6061 92.5254 29.0387 92.5216C30.2167 92.5125 31.3946 92.5076 32.5725 92.504C33.3081 92.5017 34.0438 92.4987 34.7794 92.4955C37.0799 92.4857 39.3804 92.4787 41.681 92.4753C44.3384 92.4714 46.9956 92.4585 49.653 92.4378C51.7057 92.4225 53.7583 92.4151 55.811 92.4138C57.0376 92.4129 58.264 92.4085 59.4906 92.3958C60.6448 92.384 61.7986 92.3822 62.9529 92.388C63.3763 92.3884 63.7998 92.3853 64.2233 92.3783C67.4215 92.3283 67.4215 92.3283 68.3658 93.0863C68.7461 93.6248 69.0031 94.1275 69.2567 94.7358C69.4517 95.0662 69.6505 95.3943 69.8549 95.7188C70.049 96.051 70.2425 96.3836 70.4353 96.7166C71.2575 98.1204 72.0951 99.5114 72.961 100.888C73.9974 102.537 75.0047 104.203 76.0043 105.875C77.0419 107.608 78.1016 109.326 79.1731 111.037C79.2944 111.232 79.4157 111.427 79.5407 111.628C79.646 111.796 79.7513 111.965 79.8597 112.138C80.4289 113.107 80.9504 114.105 81.4836 115.095C67.4641 115.095 53.4446 115.095 39.0003 115.095C40.9375 118.373 40.9375 118.373 42.9119 121.627C43.1274 121.978 43.3427 122.328 43.5579 122.678C43.657 122.835 43.7561 122.992 43.8582 123.153C44.1812 123.7 44.1812 123.7 44.4256 124.25C44.948 125.366 44.948 125.366 45.9476 125.991C46.6204 126.065 47.2657 126.068 47.9423 126.051C48.198 126.053 48.4538 126.055 48.7174 126.057C49.4262 126.059 50.1339 126.053 50.8426 126.042C51.6071 126.033 52.3715 126.036 53.1361 126.038C54.4602 126.039 55.7841 126.032 57.1082 126.021C59.0226 126.004 60.9368 125.998 62.8512 125.995C65.9573 125.991 69.0632 125.977 72.1691 125.957C75.1861 125.938 78.203 125.923 81.2201 125.914C81.4991 125.913 81.4991 125.913 81.7837 125.912C82.7168 125.91 83.6499 125.907 84.583 125.904C92.3229 125.883 100.063 125.846 107.802 125.799C107.697 126.624 107.584 127.408 107.323 128.198C107.268 128.367 107.212 128.537 107.156 128.711C107.095 128.891 107.035 129.072 106.973 129.258C106.877 129.549 106.877 129.549 106.78 129.846C106.57 130.484 106.358 131.122 106.146 131.76C105.999 132.206 105.852 132.651 105.706 133.097C105.398 134.03 105.09 134.963 104.78 135.895C104.385 137.088 103.991 138.281 103.598 139.474C103.222 140.615 102.845 141.756 102.468 142.897C102.396 143.113 102.325 143.33 102.251 143.553C102.048 144.169 101.844 144.784 101.64 145.4C101.58 145.58 101.521 145.76 101.46 145.946C101.108 147.005 100.735 148.052 100.342 149.096C98.7192 149.108 97.0964 149.12 95.4736 149.131C94.6426 149.137 93.8117 149.143 92.9807 149.149C89.044 149.178 85.1073 149.203 81.1705 149.217C79.5833 149.222 77.9961 149.229 76.4089 149.235C76.0039 149.237 75.5989 149.239 75.1939 149.24C69.8931 149.261 64.5953 149.322 59.2958 149.445C59.0996 149.45 58.9034 149.454 58.7012 149.459C58.5057 149.464 58.3101 149.468 58.1086 149.473C55.6155 149.53 53.1221 149.568 50.6287 149.603C48.6131 149.633 46.5993 149.68 44.5846 149.748C43.2034 149.793 41.8228 149.818 40.4409 149.828C39.6455 149.834 38.8529 149.849 38.0583 149.889C33.4543 150.112 33.4543 150.112 32.0075 148.784C30.9742 147.484 30.2646 146.072 29.5879 144.552C29.0683 143.437 28.4196 142.41 27.7708 141.37C27.5318 140.973 27.2935 140.576 27.056 140.178C26.2708 138.873 25.4753 137.574 24.6791 136.275C23.7261 134.718 22.7861 133.154 21.8476 131.589C21.0437 130.249 20.2329 128.914 19.4166 127.583C18.3533 125.848 17.3028 124.106 16.2568 122.361C15.2999 120.766 14.3322 119.178 13.3574 117.595C13.1535 117.263 12.9509 116.93 12.75 116.596C12.573 116.306 12.3901 116.02 12.2 115.738C11.9577 115.364 11.9577 115.364 11.6453 114.675C11.868 113.777 12.2476 113.012 12.6928 112.208C12.8189 111.979 12.945 111.75 13.0749 111.514C13.2114 111.269 13.3479 111.024 13.4845 110.779C13.6258 110.523 13.767 110.268 13.9082 110.012C14.8377 108.332 15.7783 106.659 16.7249 104.989C17.5235 103.579 18.3098 102.163 19.0928 100.744C20.0785 98.958 21.0661 97.1734 22.0588 95.3917C22.1726 95.187 22.2864 94.9824 22.4036 94.7715C22.5089 94.5828 22.6142 94.3941 22.7226 94.1996C22.8149 94.034 22.9071 93.8685 23.0021 93.6979C23.2103 93.3364 23.4357 92.9851 23.6649 92.6369Z" fill="url(#paint1_linear_83_652)"/>
<path d="M127.076 22.5355C127.427 23.021 127.427 23.021 127.812 23.7046C127.882 23.8271 127.952 23.9496 128.024 24.0758C128.254 24.4794 128.481 24.8848 128.708 25.2903C128.867 25.5716 129.027 25.8528 129.187 26.1339C129.509 26.6997 129.831 27.266 130.151 27.8329C130.739 28.8717 131.342 29.9016 131.946 30.9309C133.064 32.8433 134.174 34.7606 135.283 36.6785C136.24 38.3327 137.199 39.9853 138.163 41.635C139.281 43.5477 140.391 45.4647 141.5 47.3826C142.457 49.0368 143.416 50.6895 144.38 52.3392C145.403 54.0901 146.421 55.844 147.437 57.5994C147.51 57.7271 147.584 57.8547 147.66 57.9862C148.267 59.0341 148.873 60.0822 149.479 61.1302C150.007 62.0434 150.535 62.9566 151.063 63.8697C151.174 64.0614 151.174 64.0614 151.287 64.2569C152.333 66.0645 153.383 67.8696 154.437 69.6724C155.088 70.7858 155.735 71.9011 156.38 73.0177C156.498 73.2224 156.498 73.2224 156.619 73.4311C157.007 74.1034 157.396 74.7759 157.783 75.4486C157.891 75.6352 157.891 75.6352 158.001 75.8255C158.207 76.1816 158.412 76.5382 158.617 76.8947C158.937 77.436 159.275 77.9562 159.625 78.478C160.026 79.2044 160.026 79.2044 159.98 79.714C159.812 80.2772 159.599 80.7166 159.302 81.2221C159.193 81.4112 159.083 81.6003 158.97 81.7952C158.848 82.0008 158.727 82.2064 158.601 82.4183C158.473 82.6377 158.345 82.8571 158.213 83.0832C157.858 83.6912 157.502 84.2983 157.145 84.9052C156.758 85.5631 156.373 86.222 155.987 86.8808C155.241 88.1563 154.493 89.4309 153.745 90.7051C152.915 92.1187 152.085 93.5331 151.256 94.9475C150.847 95.6466 150.437 96.3456 150.027 97.0446C149.863 97.3245 149.699 97.6043 149.535 97.8842C148.55 99.5633 148.55 99.5633 148.304 99.983C148.14 100.263 147.976 100.543 147.812 100.823C147.404 101.519 146.996 102.215 146.588 102.911C145.824 104.213 145.061 105.515 144.298 106.818C143.941 107.427 143.583 108.037 143.226 108.647C143.057 108.935 142.888 109.224 142.719 109.512C142.483 109.914 142.248 110.316 142.012 110.718C141.812 111.06 141.812 111.06 141.608 111.408C141.502 111.581 141.502 111.581 141.394 111.758C141.152 112.169 141.152 112.169 140.938 112.679C140.236 114.133 140.236 114.133 139.415 114.454C138.772 114.534 138.156 114.546 137.508 114.537C137.266 114.541 137.023 114.546 136.774 114.551C135.974 114.563 135.176 114.56 134.376 114.556C133.96 114.558 133.544 114.561 133.129 114.564C131.822 114.573 130.515 114.572 129.208 114.563C127.863 114.555 126.518 114.564 125.173 114.582C124.015 114.597 122.858 114.602 121.7 114.597C121.01 114.595 120.32 114.597 119.63 114.608C115.444 114.662 115.444 114.662 114.464 113.992C113.789 113.274 113.506 112.458 113.191 111.527C112.943 111.086 112.687 110.649 112.42 110.22C112.159 109.772 111.898 109.325 111.637 108.877C111.493 108.631 111.35 108.385 111.206 108.139C110.909 107.632 110.613 107.124 110.316 106.616C109.618 105.419 108.917 104.223 108.217 103.026C107.942 102.555 107.666 102.085 107.391 101.614C106.901 100.777 106.412 99.9402 105.922 99.1034C104.47 96.6226 103.019 94.1412 101.571 91.658C100.692 90.1515 99.8114 88.646 98.9306 87.1407C98.7927 86.9052 98.6549 86.6696 98.5129 86.427C97.8627 85.3158 97.2123 84.2048 96.5616 83.0939C96.2653 82.5879 95.9691 82.0819 95.6728 81.576C95.4673 81.2249 95.2616 80.874 95.056 80.523C94.8015 80.0883 94.5487 79.6525 94.2977 79.2157C94.0361 78.7739 93.7615 78.3399 93.4769 77.913C92.4608 76.34 92.4608 76.34 92.4785 75.5828C92.6408 75.1036 92.8514 74.7158 93.115 74.2853C93.2027 74.1221 93.2903 73.959 93.3806 73.7909C93.5791 73.4217 93.7818 73.0548 93.988 72.6899C94.3697 72.0013 94.7279 71.302 95.0813 70.5983C95.212 70.3385 95.3428 70.0787 95.4735 69.8189C95.5392 69.6883 95.6049 69.5578 95.6726 69.4232C96.6744 67.441 97.7015 65.4715 98.7297 63.5031C99.234 62.5363 99.7321 61.5664 100.227 60.5944C102.735 55.6641 102.735 55.6641 104.073 53.3886C104.209 53.3886 104.346 53.3886 104.487 53.3886C104.761 53.7492 104.761 53.7492 105.075 54.2585C105.192 54.4462 105.308 54.634 105.429 54.8275C105.554 55.0323 105.679 55.2371 105.808 55.4481C106.003 55.763 106.003 55.763 106.202 56.0843C106.471 56.5173 106.738 56.9506 107.005 57.3843C107.544 58.2585 108.088 59.1292 108.632 60C108.835 60.3265 109.039 60.6531 109.242 60.9797C110.293 62.6641 111.35 64.3437 112.407 66.024C113.135 67.181 113.862 68.3384 114.589 69.4957C115.198 70.4657 115.808 71.4356 116.418 72.4053C117.658 74.3771 118.895 76.3507 120.126 78.3279C121.032 79.7807 121.941 81.2307 122.853 82.6793C123.496 83.7007 124.137 84.7235 124.774 85.7486C124.906 85.9597 125.037 86.1707 125.173 86.3882C125.426 86.7939 125.678 87.2001 125.93 87.6066C126.044 87.7892 126.158 87.9717 126.275 88.1598C126.375 88.3206 126.475 88.4813 126.578 88.6469C126.852 89.0456 127.14 89.3682 127.49 89.6987C128.308 88.3265 129.122 86.9526 129.933 85.5766C130.298 84.9583 130.664 84.3409 131.034 83.7256C131.444 83.0421 131.851 82.3566 132.257 81.6706C132.384 81.4598 132.512 81.2491 132.644 81.0319C132.76 80.8347 132.876 80.6374 132.995 80.4342C133.098 80.2621 133.201 80.0899 133.307 79.9126C133.55 79.2863 133.498 78.9999 133.293 78.3649C133.052 77.8519 133.052 77.8519 132.74 77.3376C132.625 77.1398 132.509 76.942 132.391 76.7381C132.265 76.5261 132.14 76.314 132.011 76.0955C131.743 75.6381 131.476 75.1806 131.209 74.7231C131.072 74.49 130.936 74.257 130.795 74.017C130.184 72.973 129.582 71.9237 128.98 70.8746C127.824 68.8665 126.664 66.8611 125.502 64.8562C124.387 62.9311 123.276 61.0042 122.166 59.076C121.215 57.4235 120.26 55.7731 119.304 54.1232C118.114 52.0678 116.926 50.0109 115.742 47.9521C114.79 46.2996 113.836 44.6492 112.88 42.9993C111.69 40.9439 110.502 38.887 109.317 36.8282C108.441 35.3058 107.562 33.7851 106.681 32.265C106.458 31.8789 106.234 31.4927 106.011 31.1065C105.355 29.9724 104.699 28.8385 104.039 27.7066C103.7 27.1245 103.362 26.5418 103.023 25.9593C102.899 25.7461 102.774 25.5329 102.645 25.3132C102.533 25.1187 102.42 24.9242 102.304 24.7237C102.205 24.5536 102.106 24.3835 102.003 24.2083C101.793 23.7948 101.793 23.7948 101.793 23.3751C103.111 23.1831 104.41 23.1164 105.741 23.0835C105.964 23.0774 106.188 23.0712 106.418 23.0648C107.153 23.0448 107.888 23.0258 108.623 23.0069C109.135 22.9932 109.647 22.9794 110.159 22.9655C111.503 22.9292 112.847 22.894 114.192 22.8589C115.562 22.8229 116.933 22.7859 118.303 22.7491C120.302 22.6956 122.3 22.6423 124.298 22.59C124.614 22.5817 124.614 22.5817 124.935 22.5731C125.223 22.5657 125.223 22.5657 125.517 22.558C125.684 22.5536 125.851 22.5493 126.023 22.5448C126.374 22.5372 126.725 22.5355 127.076 22.5355Z" fill="url(#paint2_linear_83_652)"/>
<path d="M89.7747 31.5604C90.4021 32.159 90.8801 32.7728 91.3516 33.5026C91.4911 33.7168 91.6305 33.9309 91.7742 34.1515C91.9179 34.3743 92.0616 34.5971 92.2097 34.8267C93.1703 36.311 94.1479 37.7726 95.1859 39.2027C95.8945 40.1861 96.5683 41.1934 97.2421 42.2015C97.7918 43.0239 98.3448 43.8416 98.9198 44.6462C99.0184 44.7872 99.117 44.9282 99.2186 45.0735C99.4024 45.3363 99.5895 45.5968 99.7802 45.8545C100.026 46.2105 100.026 46.2105 100.344 46.882C100.064 48.1322 99.3944 49.2811 98.8283 50.4197C98.7188 50.6414 98.6093 50.863 98.4965 51.0915C98.2641 51.5615 98.0314 52.0312 97.7983 52.5008C97.4486 53.2055 97.1001 53.9107 96.7519 54.6161C95.7549 56.6321 94.7522 58.6438 93.7081 60.6352C92.4422 63.0499 91.2478 65.5009 90.0467 67.9492C89.707 68.6415 89.3671 69.3338 89.0267 70.0259C88.8098 70.4669 88.5933 70.9081 88.3772 71.3496C87.9355 72.2479 87.4916 73.1401 86.9984 74.0106C86.9271 74.1371 86.8558 74.2636 86.7824 74.3939C86.6025 74.7076 86.4174 75.0182 86.2316 75.3284C85.9929 75.8389 85.9929 75.8389 86.1693 76.3546C86.5136 76.9976 86.8652 77.6335 87.2369 78.2606C87.314 78.3921 87.3912 78.5236 87.4707 78.6591C87.7242 79.0905 87.9788 79.5212 88.2334 79.9519C88.4121 80.2554 88.5907 80.5589 88.7693 80.8624C90.0309 83.004 91.3072 85.1363 92.5885 87.2658C93.8814 89.4163 95.1506 91.5807 96.4176 93.747C97.4102 95.444 98.4073 97.1382 99.4111 98.8285C100.248 100.238 101.082 101.648 101.909 103.063C101.991 103.202 102.072 103.342 102.156 103.485C102.49 104.056 102.824 104.626 103.157 105.196C104.073 106.763 104.994 108.326 105.929 109.88C106.012 110.017 106.094 110.153 106.178 110.294C106.57 110.944 106.962 111.593 107.355 112.242C107.493 112.47 107.631 112.699 107.773 112.934C107.895 113.134 108.016 113.335 108.141 113.541C108.426 114.045 108.426 114.045 108.633 114.675C106.905 114.703 105.177 114.73 103.449 114.757C102.646 114.769 101.843 114.782 101.04 114.795C100.885 114.797 100.73 114.8 100.57 114.803C100.259 114.808 99.9479 114.813 99.6367 114.818C98.8693 114.83 98.1019 114.841 97.3345 114.849C97.0357 114.852 96.7369 114.855 96.4381 114.859C96.2937 114.86 96.1492 114.862 96.0004 114.863C95.0921 114.875 94.1864 114.906 93.2791 114.949C92.95 114.961 92.95 114.961 92.6142 114.973C92.2176 114.987 91.8212 115.007 91.4254 115.035C90.6596 115.056 90.1847 115.055 89.5816 114.548C88.9623 113.808 88.4809 113.011 88.0885 112.126C87.452 110.772 86.6774 109.527 85.889 108.26C85.6053 107.794 85.3223 107.327 85.0399 106.86C84.1884 105.455 83.3357 104.05 82.4826 102.646C82.3443 102.418 82.206 102.19 82.0635 101.956C81.1091 100.385 80.1517 98.8166 79.1922 97.2493C78.577 96.2438 77.9639 95.237 77.3527 94.229C77.2109 93.9951 77.069 93.7612 76.9229 93.5203C76.6531 93.0752 76.3835 92.63 76.1142 92.1847C75.8571 91.7607 75.5959 91.3394 75.3304 90.9208C74.9707 90.3379 74.6704 89.7429 74.3775 89.123C73.4639 87.2263 73.4639 87.2263 71.9158 85.9009C70.6376 85.541 69.3273 85.6172 68.0136 85.6584C67.5763 85.6575 67.139 85.6548 66.7017 85.6505C65.5204 85.6437 64.3406 85.6615 63.1595 85.6837C61.9233 85.7028 60.687 85.6992 59.4506 85.6981C57.1121 85.6993 54.7742 85.7209 52.4358 85.7498C49.7726 85.7817 47.1095 85.7909 44.4461 85.7982C38.97 85.8138 33.4943 85.8578 28.0186 85.9205C28.313 85.2893 28.6077 84.6581 28.9024 84.027C28.9848 83.8502 29.0673 83.6735 29.1522 83.4914C29.8881 81.9162 30.6479 80.3539 31.4185 78.7959C31.5548 78.5198 31.691 78.2437 31.8272 77.9675C32.1076 77.3992 32.3883 76.8311 32.6692 76.2631C33.0296 75.5344 33.3891 74.8053 33.7485 74.0761C34.0273 73.5106 34.3065 72.9453 34.5859 72.38C34.7189 72.1108 34.8517 71.8415 34.9845 71.5721C35.1679 71.2 35.352 70.8281 35.5361 70.4562C35.6405 70.245 35.7448 70.0337 35.8523 69.8161C36.1007 69.3396 36.1007 69.3396 36.308 69.1298C36.738 69.1069 37.1689 69.0989 37.5996 69.0965C37.736 69.0955 37.8724 69.0945 38.013 69.0934C38.4734 69.0902 38.9338 69.0884 39.3943 69.0867C39.723 69.0847 40.0518 69.0826 40.3805 69.0804C41.2758 69.0747 42.1711 69.0703 43.0663 69.0661C44.0009 69.0615 44.9355 69.0558 45.87 69.0501C47.641 69.0396 49.412 69.0302 51.183 69.0212C53.1987 69.0108 55.2144 68.9993 57.2301 68.9876C61.3777 68.9637 65.5253 68.9413 69.6729 68.9199C69.7728 68.7291 69.8727 68.5382 69.9757 68.3416C70.3527 67.622 70.7298 66.9025 71.1069 66.1829C71.269 65.8737 71.431 65.5644 71.593 65.2552C72.8387 62.8766 74.1019 60.5085 75.3796 58.1475C75.9283 57.1312 76.4724 56.1124 77.0168 55.0937C77.1848 54.7794 77.1848 54.7794 77.3562 54.4587C77.583 54.0342 77.8098 53.6098 78.0367 53.1853C78.5987 52.1334 79.1613 51.0818 79.7238 50.0302C79.9483 49.6105 80.1728 49.1907 80.3973 48.7709C81.7443 46.2523 83.0914 43.7337 84.4384 41.2151C84.6053 40.9029 84.6053 40.9029 84.7756 40.5844C84.9984 40.168 85.2212 39.7516 85.4441 39.3353C86.0332 38.2348 86.6205 37.1332 87.2053 36.0303C87.3275 35.8003 87.4497 35.5703 87.5757 35.3334C87.8102 34.892 88.0441 34.4504 88.2775 34.0085C88.436 33.7106 88.436 33.7106 88.5977 33.4067C88.7364 33.1448 88.7364 33.1448 88.8779 32.8777C89.1476 32.4093 89.4447 31.9867 89.7747 31.5604Z" fill="#EC0373"/>
<defs>
<linearGradient id="paint0_linear_83_652" x1="74.4389" y1="0.0775233" x2="5.44549" y2="81.6999" gradientUnits="userSpaceOnUse">
<stop stop-color="white"/>
<stop offset="1" stop-color="white" stop-opacity="0"/>
</linearGradient>
<linearGradient id="paint1_linear_83_652" x1="11.6453" y1="116.144" x2="107.827" y2="125.866" gradientUnits="userSpaceOnUse">
<stop stop-color="white"/>
<stop offset="1" stop-color="white" stop-opacity="0"/>
</linearGradient>
<linearGradient id="paint2_linear_83_652" x1="140.235" y1="114.675" x2="99.4849" y2="22.9163" gradientUnits="userSpaceOnUse">
<stop stop-color="white"/>
<stop offset="1" stop-color="white" stop-opacity="0"/>
</linearGradient>
</defs>
</svg>
