<svg width="212" height="60" viewBox="0 0 212 60" fill="none" xmlns="http://www.w3.org/2000/svg">
<g clip-path="url(#clip0_83_542)">
<path d="M69.9813 6.11734C74.3114 6.11734 78.6415 6.11734 83.1028 6.11734C83.106 8.17181 83.1091 10.2263 83.1124 12.343C83.1149 13.6449 83.1175 14.9468 83.1204 16.2487C83.1219 16.9328 83.1234 17.6169 83.1249 18.301C83.1252 18.4296 83.1252 18.4296 83.1255 18.5608C83.1284 19.942 83.1305 21.3232 83.1323 22.7044C83.1341 24.1236 83.1369 25.5428 83.1406 26.962C83.1428 27.8365 83.1443 28.7111 83.1448 29.5857C83.1453 30.1867 83.1466 30.7878 83.1487 31.3888C83.1499 31.7347 83.1507 32.0806 83.1504 32.4266C83.1491 34.1425 83.1584 35.8586 83.6653 37.5157C83.6866 37.5874 83.708 37.6591 83.7299 37.7329C84.3705 39.8045 85.5144 41.6528 87.0237 43.204C87.1282 43.3117 87.2312 43.4209 87.3341 43.5303C90.079 46.3852 94.2372 47.7887 98.1295 47.8729C102.044 47.9102 106.117 46.6231 109 43.91C109.163 43.7572 109.331 43.617 109.504 43.4759C111.37 41.8454 112.568 39.4704 113.215 37.1229C113.258 36.967 113.258 36.967 113.302 36.808C113.423 36.2534 113.407 35.6945 113.407 35.1296C113.407 35.0042 113.408 34.8787 113.408 34.7533C113.409 34.4101 113.41 34.0669 113.41 33.7237C113.41 33.353 113.411 32.9823 113.413 32.6117C113.414 31.97 113.416 31.3283 113.417 30.6866C113.418 29.7588 113.42 28.831 113.422 27.9032C113.426 26.3978 113.429 24.8924 113.432 23.3871C113.434 21.9249 113.437 20.4628 113.441 19.0007C113.441 18.9105 113.441 18.8204 113.441 18.7275C113.442 18.2752 113.443 17.8228 113.444 17.3705C113.453 13.6194 113.461 9.8684 113.467 6.11734C115.372 6.08795 117.277 6.0658 119.181 6.05222C120.066 6.04574 120.95 6.03692 121.835 6.02252C122.606 6.00997 123.377 6.00188 124.148 5.99908C124.556 5.99744 124.964 5.99361 125.372 5.98444C125.757 5.97587 126.141 5.97329 126.526 5.97517C126.666 5.97483 126.807 5.97234 126.948 5.9675C127.981 5.93372 127.981 5.93372 128.325 6.24012C128.579 6.54122 128.768 6.87177 128.947 7.22155C129.062 7.43816 129.2 7.63573 129.342 7.83555C129.39 7.90517 129.437 7.97479 129.486 8.04652C129.535 8.11679 129.583 8.18706 129.633 8.25945C129.742 8.41843 129.851 8.57741 129.96 8.73639C130.014 8.81612 130.069 8.89585 130.125 8.978C130.391 9.36505 130.656 9.75238 130.921 10.1397C131.026 10.2933 131.131 10.447 131.236 10.6006C133.129 13.3659 133.129 13.3659 133.286 13.5965C133.391 13.7499 133.496 13.9033 133.601 14.0567C133.866 14.4439 134.131 14.8311 134.396 15.2184C134.891 15.9421 135.387 16.6656 135.883 17.3883C136.434 18.1893 136.982 18.9913 137.531 19.7935C137.795 20.1789 138.059 20.5643 138.322 20.9497C138.428 21.1034 138.533 21.257 138.638 21.4106C138.716 21.5247 138.716 21.5247 138.796 21.6411C140.53 24.176 140.53 24.176 140.688 24.4068C140.793 24.5593 140.897 24.7118 141.001 24.8642C141.276 25.2657 141.551 25.6674 141.825 26.0697C141.882 26.1533 141.939 26.237 141.997 26.3232C142.107 26.4833 142.216 26.6434 142.324 26.8037C142.563 27.1535 142.802 27.4966 143.075 27.8213C143.584 27.1079 144.091 26.394 144.575 25.6634C144.803 25.3227 145.035 24.985 145.267 24.6474C145.362 24.5093 145.457 24.3713 145.552 24.2333C145.601 24.1623 145.649 24.0913 145.7 24.0182C145.957 23.6434 146.214 23.2681 146.471 22.8928C146.523 22.8159 146.576 22.7389 146.63 22.6596C146.737 22.503 146.845 22.3464 146.952 22.1898C147.215 21.8044 147.479 21.419 147.743 21.0335C147.848 20.8799 147.953 20.7263 148.058 20.5727C149.951 17.8073 151.843 15.0419 153.736 12.2766C153.814 12.1625 153.814 12.1625 153.894 12.0461C153.999 11.8926 154.104 11.7392 154.209 11.5858C154.474 11.1986 154.739 10.8114 155.004 10.4241C155.506 9.69003 156.008 8.95606 156.512 8.22279C156.551 8.16519 156.591 8.1076 156.632 8.04826C156.712 7.93042 156.795 7.81342 156.878 7.69727C157.003 7.50995 157.11 7.32703 157.216 7.12971C157.725 6.23482 157.725 6.23482 158.118 6.04038C158.545 5.92286 158.981 5.94901 159.419 5.96513C159.564 5.96551 159.709 5.9653 159.854 5.96454C160.246 5.96416 160.637 5.972 161.029 5.9814C161.439 5.98981 161.849 5.99057 162.259 5.99216C163.035 5.99631 163.81 6.0073 164.585 6.02078C165.468 6.0358 166.352 6.04315 167.235 6.04987C169.051 6.06386 170.867 6.08743 172.682 6.11734C172.682 6.19696 172.682 6.19696 172.682 6.27818C172.685 9.43283 172.69 12.5875 172.697 15.7421C172.698 16.122 172.699 16.5018 172.7 16.8817C172.7 16.9951 172.7 16.9951 172.7 17.1108C172.703 18.3308 172.704 19.5507 172.705 20.7707C172.706 22.025 172.709 23.2793 172.712 24.5336C172.714 25.3059 172.715 26.0782 172.715 26.8505C172.715 27.382 172.716 27.9136 172.719 28.4451C172.72 28.7505 172.721 29.0559 172.72 29.3614C172.708 34.334 174.399 38.6676 177.897 42.2347C181.158 45.494 185.861 47.3332 190.456 47.3624C191.524 47.3615 192.571 47.3468 193.626 47.1788C193.704 47.1666 193.781 47.1544 193.861 47.1419C198.035 46.4579 201.869 44.581 204.729 41.6481C205.086 41.9819 205.366 42.3452 205.649 42.7427C205.696 42.8084 205.743 42.874 205.792 42.9417C206.243 43.5722 206.689 44.207 207.134 44.8422C207.4 45.2222 207.667 45.6011 207.936 45.9794C207.977 46.0372 208.018 46.095 208.06 46.1546C208.142 46.2704 208.224 46.3862 208.306 46.502C208.516 46.7973 208.725 47.0928 208.935 47.3883C209.019 47.507 209.103 47.6257 209.187 47.7444C209.692 48.4567 209.692 48.4567 209.818 48.6349C209.902 48.7532 209.986 48.8715 210.069 48.9898C210.284 49.2927 210.499 49.5958 210.713 49.899C211.18 50.5604 211.65 51.2195 212.131 51.8715C212.001 52.225 211.739 52.4068 211.447 52.6257C211.395 52.6657 211.343 52.7057 211.289 52.7469C211.178 52.8318 211.066 52.9163 210.954 53.0006C210.791 53.124 210.629 53.2488 210.467 53.374C208.713 54.7202 206.803 55.8684 204.806 56.8218C204.645 56.8996 204.484 56.9795 204.324 57.0599C200.197 59.0967 195.489 60.0172 190.903 60.021C190.841 60.021 190.778 60.0211 190.714 60.0211C183.98 60.0117 177.167 57.9198 171.757 53.8827C171.712 53.8489 171.666 53.8152 171.619 53.7804C169.76 52.3948 167.889 50.8125 166.457 48.9844C166.273 48.7498 166.079 48.5255 165.885 48.2996C165.363 47.6747 164.896 47.0145 164.439 46.3408C164.378 46.2503 164.378 46.2503 164.315 46.1579C161.864 42.5118 160.309 38.2821 159.729 33.9386C159.718 33.8567 159.718 33.8567 159.707 33.7731C159.557 32.6268 159.531 31.4901 159.534 30.3352C159.535 30.2451 159.535 30.1551 159.535 30.0623C159.538 28.6861 159.588 27.3382 159.813 25.9777C159.831 25.8664 159.831 25.8664 159.85 25.7528C159.902 25.4376 159.958 25.1233 160.019 24.8097C160.073 24.5553 160.073 24.5553 160.065 24.3017C159.384 25.2432 158.719 26.1957 158.055 27.1492C157.772 27.555 157.489 27.9605 157.206 28.3659C157.093 28.5266 156.981 28.6872 156.869 28.8478C153.505 33.6662 153.505 33.6662 153.336 33.9073C153.225 34.0674 153.113 34.2276 153.001 34.3877C152.715 34.7966 152.43 35.2055 152.144 35.6142C151.653 36.3167 151.162 37.0192 150.676 37.7252C150.292 38.2838 149.903 38.8388 149.513 39.3933C148.964 40.1735 148.418 40.9559 147.872 41.7383C147.591 42.1413 147.309 42.5441 147.028 42.947C146.916 43.1076 146.804 43.2682 146.692 43.4288C146.467 43.75 146.243 44.0713 146.019 44.3925C145.963 44.4721 145.908 44.5517 145.85 44.6338C145.739 44.7932 145.628 44.9526 145.516 45.1119C145.223 45.5319 144.93 45.9522 144.637 46.3729C144.576 46.4604 144.516 46.548 144.453 46.6382C144.336 46.8058 144.22 46.9735 144.103 47.1413C144.001 47.2885 143.898 47.4351 143.794 47.5812C143.69 47.728 143.591 47.8781 143.494 48.0292C143.327 48.1844 143.327 48.1844 143.038 48.2459C142.738 48.1844 142.738 48.1844 142.52 47.95C142.449 47.8408 142.38 47.7303 142.313 47.6187C142.232 47.4944 142.152 47.3701 142.071 47.2459C142.029 47.18 141.987 47.114 141.944 47.0461C141.723 46.7045 141.486 46.3741 141.251 46.0423C141.15 45.8996 141.05 45.7569 140.949 45.6141C140.898 45.5413 140.847 45.4684 140.794 45.3933C140.348 44.7583 139.905 44.1216 139.461 43.4852C139.18 43.0823 138.898 42.6794 138.617 42.2766C138.278 41.7918 137.94 41.3071 137.602 40.8222C137.063 40.0509 136.524 39.28 135.983 38.5108C135.605 37.9739 135.23 37.4352 134.858 36.8943C134.351 36.1575 133.837 35.425 133.325 34.6917C133.042 34.2872 132.759 33.8824 132.477 33.4777C132.365 33.3171 132.252 33.1564 132.14 32.9958C130.122 30.1048 130.122 30.1048 129.953 29.8637C129.841 29.7037 129.73 29.5437 129.618 29.3837C129.331 28.9729 129.044 28.562 128.758 28.1509C128.699 28.0667 128.641 27.9826 128.58 27.8959C128.47 27.738 128.36 27.5802 128.25 27.4222C127.945 26.9845 127.636 26.5495 127.325 26.116C127.287 26.0622 127.248 26.0083 127.208 25.9528C127.114 25.8214 127.02 25.6901 126.925 25.5587C126.925 25.6131 126.925 25.6674 126.924 25.7235C126.886 33.157 126.834 40.5903 126.765 48.0236C126.759 48.7167 126.753 49.4097 126.746 50.1028C126.739 50.9568 126.731 51.8107 126.723 52.6647C126.718 53.1032 126.714 53.5417 126.71 53.9802C126.707 54.3866 126.703 54.793 126.699 55.1994C126.697 55.3447 126.696 55.4899 126.695 55.6352C126.683 57.0355 126.633 58.432 126.589 59.8324C122.259 59.8324 117.929 59.8324 113.467 59.8324C113.467 58.588 113.467 57.3436 113.467 56.0615C113.183 56.2118 112.898 56.3622 112.605 56.5171C108.334 58.7426 103.733 59.8813 98.9159 60C98.7819 60.0037 98.7819 60.0037 98.6452 60.0076C98.3985 60.0107 98.1531 60.0064 97.9066 60C97.8456 59.999 97.7846 59.9979 97.7217 59.9968C95.3962 59.952 93.0981 59.6331 90.8411 59.0782C90.7532 59.0568 90.6653 59.0353 90.5747 59.0132C86.6072 58.0239 82.935 56.1593 79.7383 53.6313C79.6608 53.5704 79.5833 53.5095 79.5034 53.4467C78.1156 52.3374 76.7992 51.0884 75.701 49.6928C75.5801 49.5495 75.4592 49.4064 75.3382 49.2633C71.9962 45.1675 69.9594 39.8385 69.9712 34.5451C69.9712 34.4219 69.9711 34.2988 69.971 34.1756C69.9708 33.8395 69.9711 33.5034 69.9716 33.1672C69.9719 32.8039 69.9718 32.4405 69.9717 32.0772C69.9717 31.4484 69.972 30.8197 69.9724 30.1909C69.9731 29.2818 69.9733 28.3727 69.9734 27.4637C69.9736 25.9886 69.9742 24.5135 69.975 23.0384C69.9758 21.6059 69.9764 20.1734 69.9767 18.7409C69.9767 18.6516 69.9768 18.5623 69.9768 18.4704C69.977 17.7722 69.9771 17.074 69.9773 16.3759C69.9781 12.9564 69.9798 9.53685 69.9813 6.11734Z" fill="#FEFEFE"/>
<path d="M172.682 6.11731C172.682 6.17039 172.682 6.22346 172.682 6.27815C172.686 9.4328 172.69 12.5874 172.697 15.7421C172.698 16.1219 172.699 16.5018 172.7 16.8817C172.7 16.9573 172.7 17.0329 172.7 17.1108C172.703 18.3307 172.704 19.5507 172.705 20.7706C172.706 22.025 172.709 23.2793 172.712 24.5336C172.714 25.3059 172.715 26.0781 172.715 26.8504C172.715 27.382 172.717 27.9135 172.719 28.4451C172.72 28.7505 172.721 29.0559 172.72 29.3613C172.709 34.334 174.399 38.6676 177.897 42.2346C181.158 45.494 185.861 47.3332 190.456 47.3623C191.524 47.3614 192.571 47.3468 193.626 47.1788C193.704 47.1666 193.781 47.1544 193.861 47.1419C198.035 46.4579 201.642 44.476 204.729 41.648C205.086 41.9818 205.366 42.3451 205.649 42.7427C205.696 42.8083 205.743 42.874 205.792 42.9417C206.244 43.5721 206.689 44.207 207.134 44.8422C207.4 45.2222 207.667 45.601 207.936 45.9794C207.977 46.0372 208.018 46.095 208.06 46.1545C208.142 46.2703 208.224 46.3862 208.307 46.5019C208.516 46.7973 208.725 47.0928 208.935 47.3883C209.019 47.507 209.103 47.6257 209.187 47.7444C209.692 48.4567 209.692 48.4567 209.818 48.6349C209.902 48.7532 209.986 48.8715 210.069 48.9898C210.284 49.2927 210.499 49.5957 210.713 49.899C211.18 50.5603 211.65 51.2195 212.131 51.8715C212.001 52.225 211.739 52.4067 211.448 52.6257C211.395 52.6657 211.343 52.7057 211.289 52.7468C211.178 52.8317 211.066 52.9163 210.954 53.0006C210.791 53.124 210.629 53.2488 210.467 53.374C208.713 54.7201 206.803 55.8684 204.806 56.8218C204.645 56.8996 204.484 56.9795 204.324 57.0598C200.197 59.0966 195.489 60.0171 190.903 60.0209C190.841 60.021 190.778 60.0211 190.714 60.0211C183.98 60.0116 177.167 57.9198 171.757 53.8827C171.689 53.832 171.689 53.832 171.619 53.7804C169.76 52.3947 167.889 50.8125 166.457 48.9844C166.273 48.7498 166.08 48.5254 165.885 48.2996C165.363 47.6747 164.896 47.0144 164.439 46.3408C164.378 46.2503 164.378 46.2503 164.315 46.1579C161.864 42.5117 160.309 38.282 159.729 33.9385C159.722 33.8839 159.714 33.8293 159.707 33.7731C159.557 32.6268 159.53 31.4901 159.535 30.3352C159.535 30.1997 159.535 30.1997 159.535 30.0616C159.539 28.6854 159.581 27.3373 159.813 25.9776C159.827 25.8933 159.841 25.809 159.856 25.7221C161.019 18.9105 164.714 12.1557 170.243 7.87709C170.405 7.74129 170.566 7.6051 170.727 7.46857C171.12 7.14116 171.524 6.82965 171.936 6.52583C171.991 6.48512 172.046 6.44441 172.102 6.40246C172.494 6.11731 172.494 6.11731 172.682 6.11731Z" fill="#ED0474"/>
<path d="M210.954 7.54181C211.005 7.58304 211.057 7.62426 211.11 7.66673C211.265 7.79181 211.42 7.91799 211.574 8.04461C211.646 8.10208 211.646 8.10208 211.719 8.16071C211.833 8.25611 211.941 8.35934 212.047 8.4636C212.047 8.74094 212.011 8.80111 211.862 9.02482C211.821 9.08714 211.78 9.14945 211.738 9.21365C211.692 9.28156 211.646 9.34947 211.599 9.41943C211.552 9.49108 211.505 9.56272 211.456 9.63653C211.298 9.87443 211.139 10.1118 210.98 10.3491C210.869 10.516 210.758 10.6829 210.647 10.8498C209.798 12.1253 208.939 13.394 208.078 14.6615C207.003 16.245 205.949 17.8422 204.898 19.4413C204.562 19.373 204.451 19.2607 204.23 18.9961C202.949 17.5349 201.354 16.3975 199.683 15.4189C199.581 15.3589 199.581 15.3589 199.477 15.2978C195.322 12.8971 190.075 12.543 185.485 13.7195C184.557 13.9697 183.656 14.2778 182.776 14.6647C182.715 14.6914 182.654 14.718 182.591 14.7455C180.155 15.8221 178.065 17.4013 176.068 19.1391C175.72 19.4413 175.72 19.4413 175.627 19.4413C175.616 17.8225 175.605 16.2037 175.594 14.5849C175.589 13.833 175.584 13.0811 175.579 12.3292C175.574 11.6725 175.57 11.0159 175.565 10.3593C175.563 10.0127 175.561 9.66621 175.558 9.31969C175.547 7.63764 175.54 5.95575 175.543 4.27366C175.68 4.20255 175.818 4.13147 175.955 4.0604C176.07 4.00102 176.07 4.00102 176.187 3.94044C183.914 -0.0359651 193.233 -0.504018 210.954 7.54181Z" fill="#ED0474"/>
<path d="M9.33636 -0.418994C9.56134 -0.443663 9.76687 -0.451776 9.99204 -0.449225C10.0605 -0.44944 10.129 -0.449655 10.1996 -0.449876C10.4304 -0.450292 10.6612 -0.448904 10.892 -0.447534C11.0569 -0.447463 11.2218 -0.447502 11.3868 -0.447645C11.8356 -0.447717 12.2845 -0.446235 12.7334 -0.444484C13.202 -0.442916 13.6707 -0.442765 14.1394 -0.442466C15.0274 -0.441684 15.9154 -0.439619 16.8034 -0.437099C17.8142 -0.434293 18.8249 -0.432908 19.8357 -0.431645C21.9154 -0.429015 23.995 -0.42459 26.0747 -0.418994C26.1211 -0.333408 26.1211 -0.333408 26.1685 -0.246093C26.3109 0.0161032 26.4533 0.278271 26.5958 0.540438C26.6445 0.630174 26.6932 0.71991 26.7434 0.812365C27.1209 1.50713 27.5039 2.19863 27.8905 2.88844C28.2658 3.55876 28.6396 4.22993 29.0132 4.9012C29.1923 5.22276 29.3724 5.54378 29.5529 5.86454C29.6779 6.08677 29.8024 6.30925 29.9268 6.53178C29.9868 6.63877 30.047 6.74565 30.1073 6.85241C30.1916 7.00143 30.2751 7.15083 30.3585 7.30032C30.4064 7.38554 30.4543 7.47075 30.5037 7.55855C30.6161 7.79198 30.6881 7.9539 30.7008 8.21229C30.6042 8.46005 30.6042 8.46005 30.4531 8.73538C30.4261 8.78532 30.3991 8.83525 30.3713 8.8867C30.2825 9.05013 30.1921 9.21254 30.1015 9.375C30.0391 9.48914 29.9767 9.60332 29.9144 9.71756C29.5104 10.4561 29.0959 11.1888 28.6769 11.919C28.3012 12.5762 27.9439 13.2423 27.5887 13.9106C27.1486 14.7387 26.6982 15.559 26.2314 16.3725C25.8736 16.9986 25.531 17.6322 25.1915 18.2682C24.8083 18.986 24.418 19.6986 24.0139 20.405C23.3935 21.4986 22.8009 22.6078 22.2055 23.7151C18.7081 23.7151 15.2108 23.7151 11.6074 23.7151C11.7402 23.3844 11.8807 23.0861 12.048 22.773C12.0746 22.7231 12.1013 22.6731 12.1287 22.6217C12.2158 22.4588 12.3032 22.2961 12.3907 22.1334C12.4208 22.0771 12.451 22.0209 12.4821 21.9629C12.9078 21.1689 13.3449 20.3824 13.7937 19.6011C14.2197 18.8555 14.6209 18.0974 15.0226 17.3387C15.4427 16.5458 15.8741 15.7613 16.3216 14.9833C16.7135 14.2981 17.084 13.6025 17.4532 12.905C17.9611 11.9456 18.4822 10.9956 19.0234 10.0542C19.2764 9.61087 19.5211 9.16283 19.7663 8.71508C18.1008 8.71508 16.4354 8.71508 14.7195 8.71508C14.1366 9.79358 14.1366 9.79358 13.542 10.8939C12.9952 11.8575 12.9952 11.8575 12.7245 12.3315C12.4283 12.8537 12.1436 13.3818 11.8597 13.9106C11.4467 14.6799 11.0228 15.4418 10.5892 16.1997C10.2465 16.8006 9.91585 17.4073 9.58869 18.0168C9.17571 18.7861 8.75179 19.5479 8.31814 20.3058C7.97549 20.9068 7.64482 21.5135 7.31767 22.1229C6.90468 22.8922 6.48076 23.6541 6.04711 24.412C5.70446 25.0129 5.37379 25.6196 5.04664 26.229C4.63402 26.9977 4.21058 27.7589 3.77719 28.5161C3.37331 29.2242 2.98552 29.9405 2.60164 30.6596C1.67337 32.3926 1.67337 32.3926 1.42982 32.514C1.3859 32.4601 1.34199 32.4062 1.29675 32.3506C0.942553 31.9174 0.584869 31.4881 0.220703 31.0632C-0.0974894 30.6915 -0.404278 30.3129 -0.70453 29.9267C-1.07929 29.4452 -1.47302 28.9834 -1.87578 28.5251C-2.20474 28.1504 -2.52368 27.7691 -2.83822 27.3823C-3.13299 27.0231 -3.43497 26.67 -3.73651 26.3164C-3.80807 26.2323 -3.87963 26.1481 -3.95336 26.0615C-3.99216 26.0204 -4.03095 25.9794 -4.07093 25.9372C-4.39989 25.5791 -4.47193 25.2997 -4.47485 24.8218C-4.41445 23.9025 -3.81638 23.0857 -3.35891 22.3138C-3.16071 21.9789 -2.96915 21.6405 -2.77799 21.3016C-2.64387 21.0641 -2.50861 20.8272 -2.3733 20.5903C-2.09422 20.0991 -1.82461 19.6031 -1.55617 19.1061C-1.16071 18.3744 -0.75564 17.6488 -0.343399 16.9263C0.0248518 16.2799 0.386655 15.6301 0.746404 14.9791C0.774721 14.9278 0.803038 14.8766 0.832213 14.8238C0.874767 14.7467 0.874767 14.7467 0.918181 14.6682C0.97548 14.5645 1.03278 14.4608 1.09008 14.3571C1.11844 14.3058 1.1468 14.2545 1.17602 14.2016C1.46945 13.6708 1.76496 13.1412 2.06066 12.6117C2.49683 11.8305 2.93126 11.0483 3.3644 10.2654C3.9548 9.19822 4.54813 8.13272 5.14262 7.06783C5.40517 6.59745 5.66748 6.12693 5.92982 5.65642C6.24413 5.09268 6.55849 4.52896 6.87312 3.96539C6.9775 3.77837 7.08187 3.59135 7.18624 3.40433C7.26279 3.26717 7.26279 3.26717 7.34089 3.12724C7.62656 2.615 7.91127 2.10225 8.19493 1.58891C8.24129 1.50503 8.24129 1.50503 8.2886 1.41946C8.43889 1.14755 8.58905 0.87558 8.73901 0.603492C8.79323 0.505329 8.84744 0.407168 8.90167 0.309009C8.97287 0.179869 8.97287 0.179869 9.04552 0.0481196C9.13614 -0.111319 9.23434 -0.266538 9.33636 -0.418994Z" fill="url(#paint0_linear_83_542)"/>
<path d="M5.13046 36.5364C5.36849 36.5099 5.58843 36.5 5.82688 36.5005C5.89977 36.4997 5.97266 36.4989 6.04776 36.4981C6.29346 36.4957 6.53913 36.4951 6.78483 36.4945C6.96041 36.4932 7.13599 36.4918 7.31157 36.4904C7.78967 36.4867 8.26776 36.4847 8.74586 36.4833C9.04443 36.4824 9.34299 36.4812 9.64156 36.4799C10.5753 36.476 11.509 36.4732 12.4428 36.4719C13.5214 36.4703 14.5999 36.4651 15.6784 36.4569C16.5116 36.4507 17.3447 36.4478 18.1778 36.4473C18.6757 36.4469 19.1735 36.4452 19.6713 36.4401C20.1398 36.4354 20.6081 36.4347 21.0766 36.437C21.2484 36.4372 21.4203 36.4359 21.5922 36.4331C22.8903 36.4131 22.8903 36.4131 23.2735 36.7158C23.4279 36.9308 23.5322 37.1315 23.6351 37.3744C23.7143 37.5063 23.795 37.6373 23.8779 37.7668C23.9567 37.8995 24.0352 38.0323 24.1135 38.1652C24.4472 38.7257 24.7872 39.2811 25.1386 39.8307C25.5593 40.4892 25.9681 41.1542 26.3738 41.8219C26.795 42.5137 27.2251 43.1997 27.66 43.8829C27.7092 43.9608 27.7585 44.0386 27.8092 44.1189C27.8519 44.186 27.8946 44.2532 27.9387 44.3224C28.1697 44.7094 28.3813 45.1076 28.5977 45.5029C22.9076 45.5029 17.2174 45.5029 11.3548 45.5029C12.141 46.8118 12.141 46.8118 12.9424 48.1111C13.0298 48.2509 13.1172 48.3908 13.2046 48.5307C13.2448 48.5933 13.285 48.6559 13.3265 48.7204C13.4576 48.9386 13.4576 48.9386 13.5567 49.1582C13.7688 49.6036 13.7688 49.6036 14.1745 49.8533C14.4476 49.8827 14.7095 49.8843 14.9841 49.8774C15.0879 49.8781 15.1917 49.8788 15.2987 49.8795C15.5864 49.8807 15.8736 49.8781 16.1612 49.8739C16.4715 49.8702 16.7818 49.8715 17.0921 49.8721C17.6296 49.8725 18.1669 49.8699 18.7043 49.8652C19.4813 49.8584 20.2583 49.8562 21.0353 49.8552C22.296 49.8533 23.5566 49.8477 24.8172 49.8398C26.0417 49.8321 27.2663 49.8262 28.4908 49.8226C28.604 49.8223 28.604 49.8223 28.7196 49.822C29.0983 49.8209 29.477 49.8198 29.8557 49.8188C32.9972 49.8101 36.1386 49.7953 39.28 49.7766C39.2371 50.1061 39.1912 50.4193 39.0853 50.7346C39.0629 50.8022 39.0405 50.8697 39.0174 50.9393C38.9929 51.0113 38.9685 51.0834 38.9433 51.1576C38.9045 51.2738 38.9045 51.2738 38.8649 51.3924C38.7797 51.6473 38.6937 51.902 38.6077 52.1567C38.5481 52.3346 38.4885 52.5125 38.4289 52.6904C38.304 53.063 38.1789 53.4354 38.0534 53.8077C37.893 54.2838 37.7331 54.7601 37.5735 55.2365C37.4207 55.6922 37.2678 56.1477 37.1148 56.6033C37.0858 56.6897 37.0568 56.7761 37.0269 56.8651C36.9443 57.111 36.8615 57.3568 36.7787 57.6026C36.7546 57.6745 36.7304 57.7464 36.7056 57.8205C36.5629 58.2432 36.4115 58.6615 36.252 59.0783C35.5933 59.0831 34.9346 59.0878 34.276 59.0924C33.9387 59.0947 33.6014 59.0971 33.2642 59.0996C31.6663 59.111 30.0685 59.121 28.4707 59.1265C27.8265 59.1287 27.1823 59.1313 26.5381 59.1339C26.3737 59.1346 26.2093 59.1352 26.0449 59.1359C23.8934 59.1443 21.7432 59.1686 19.5922 59.2177C19.5126 59.2196 19.433 59.2214 19.3509 59.2233C19.2715 59.2251 19.1922 59.2269 19.1104 59.2288C18.0985 59.2515 17.0865 59.2666 16.0744 59.2808C15.2564 59.2926 14.439 59.3113 13.6213 59.3385C13.0607 59.3566 12.5003 59.3666 11.9395 59.3705C11.6166 59.3731 11.2949 59.3791 10.9724 59.395C9.10375 59.484 9.10375 59.484 8.51651 58.9536C8.09712 58.4346 7.80911 57.8711 7.53447 57.2639C7.32359 56.8189 7.06027 56.409 6.79693 55.9934C6.69996 55.8351 6.60322 55.6765 6.50681 55.5178C6.18814 54.9965 5.86524 54.4778 5.54209 53.9592C5.15528 53.3378 4.77378 52.7133 4.39283 52.0883C4.06657 51.5535 3.73748 51.0206 3.40616 50.4889C2.97461 49.7964 2.54821 49.1009 2.12365 48.4041C1.73528 47.7673 1.34251 47.1334 0.946864 46.5011C0.8641 46.3685 0.781894 46.2356 0.70036 46.1022C0.628507 45.9865 0.554252 45.8721 0.477101 45.7598C0.378778 45.6102 0.378778 45.6102 0.251953 45.3353C0.342342 44.9768 0.496414 44.6714 0.677114 44.3503C0.728298 44.2589 0.779481 44.1675 0.832216 44.0733C0.887613 43.9755 0.943024 43.8776 0.998448 43.7797C1.05581 43.6778 1.11313 43.5757 1.17043 43.4737C1.54769 42.803 1.92946 42.1348 2.31367 41.468C2.63778 40.9051 2.95695 40.3396 3.27473 39.7731C3.67479 39.0601 4.07566 38.3476 4.47859 37.6362C4.52477 37.5545 4.57095 37.4728 4.61854 37.3886C4.66126 37.3133 4.70399 37.2379 4.74801 37.1603C4.78544 37.0942 4.82288 37.0281 4.86145 36.96C4.94592 36.8156 5.03743 36.6754 5.13046 36.5364Z" fill="url(#paint1_linear_83_542)"/>
<path d="M47.1024 8.54761C47.245 8.74143 47.245 8.74143 47.4014 9.01439C47.4298 9.06329 47.4582 9.11219 47.4874 9.16257C47.5808 9.32372 47.6728 9.48559 47.7648 9.64747C47.8296 9.7598 47.8945 9.87208 47.9595 9.9843C48.0902 10.2102 48.2205 10.4363 48.3505 10.6626C48.5892 11.0774 48.8338 11.4886 49.079 11.8996C49.5329 12.6631 49.9834 13.4286 50.4335 14.1943C50.8218 14.8548 51.2111 15.5146 51.6024 16.1733C52.0561 16.9369 52.5068 17.7023 52.9569 18.4681C53.3452 19.1285 53.7344 19.7884 54.1258 20.447C54.541 21.1461 54.9542 21.8464 55.3664 22.5473C55.3964 22.5982 55.4264 22.6492 55.4573 22.7017C55.7033 23.1201 55.9493 23.5385 56.1953 23.957C56.4096 24.3216 56.624 24.6862 56.8384 25.0507C56.8834 25.1273 56.8834 25.1273 56.9293 25.2053C57.3538 25.927 57.78 26.6478 58.2078 27.3675C58.4718 27.8121 58.7346 28.2574 58.9964 28.7032C59.0444 28.7849 59.0444 28.7849 59.0934 28.8682C59.251 29.1367 59.4086 29.4052 59.566 29.6738C59.6097 29.7482 59.6097 29.7482 59.6543 29.8242C59.7378 29.9664 59.821 30.1088 59.9042 30.2511C60.0342 30.4672 60.1713 30.6749 60.3133 30.8833C60.4762 31.1733 60.4762 31.1733 60.4575 31.3768C60.3893 31.6016 60.3028 31.777 60.1825 31.9789C60.1379 32.0544 60.0933 32.1299 60.0474 32.2077C59.9981 32.2898 59.9488 32.3719 59.898 32.4565C59.846 32.5441 59.794 32.6317 59.7405 32.7219C59.5963 32.9647 59.4516 33.2071 59.3066 33.4494C59.1497 33.7121 58.9934 33.9751 58.837 34.2382C58.5342 34.7474 58.2306 35.2563 57.9268 35.7651C57.5898 36.3295 57.2533 36.8942 56.9168 37.4589C56.7505 37.738 56.5842 38.0171 56.4178 38.2962C56.3512 38.4079 56.2847 38.5197 56.2181 38.6314C55.8185 39.3018 55.8185 39.3018 55.7187 39.4694C55.652 39.5812 55.5854 39.693 55.5187 39.8048C55.3531 40.0827 55.1875 40.3606 55.0219 40.6385C54.712 41.1584 54.4022 41.6782 54.0925 42.1982C53.9475 42.4416 53.8024 42.6851 53.6574 42.9285C53.5888 43.0437 53.5202 43.1588 53.4516 43.274C53.356 43.4345 53.2604 43.5951 53.1647 43.7556C53.0835 43.8919 53.0835 43.8919 53.0007 44.031C52.9576 44.1001 52.9576 44.1001 52.9137 44.1707C52.8155 44.3348 52.8155 44.3348 52.7287 44.5383C52.444 45.1191 52.444 45.1191 52.1108 45.247C51.8497 45.2789 51.5996 45.2838 51.3365 45.2801C51.2382 45.282 51.14 45.2839 51.0387 45.2858C50.7142 45.2908 50.39 45.2896 50.0654 45.2878C49.8966 45.2887 49.7279 45.2896 49.5591 45.2909C49.0287 45.2946 48.4984 45.2941 47.9679 45.2908C47.4219 45.2874 46.8762 45.2911 46.3302 45.2983C45.8603 45.3043 45.3906 45.306 44.9207 45.3043C44.6404 45.3033 44.3606 45.3044 44.0804 45.3085C42.3814 45.33 42.3814 45.33 41.9835 45.0627C41.7097 44.776 41.5948 44.4504 41.4669 44.0783C41.3663 43.9023 41.2624 43.728 41.1541 43.5566C41.048 43.3779 40.942 43.1992 40.8361 43.0204C40.7778 42.9222 40.7195 42.8241 40.6613 42.7259C40.5409 42.5231 40.4205 42.3203 40.3002 42.1175C40.0166 41.6396 39.7324 41.162 39.4482 40.6845C39.3364 40.4965 39.2246 40.3085 39.1127 40.1205C38.914 39.7864 38.7153 39.4523 38.5165 39.1182C37.9271 38.1277 37.3382 37.137 36.7504 36.1455C36.3938 35.5441 36.0364 34.9429 35.6789 34.3419C35.623 34.2479 35.567 34.1539 35.5094 34.057C35.2455 33.6133 34.9815 33.1697 34.7174 32.7262C34.5972 32.5242 34.4769 32.3222 34.3567 32.1202C34.2733 31.98 34.1898 31.8399 34.1063 31.6998C34.003 31.5262 33.9004 31.3522 33.7986 31.1778C33.6924 31.0014 33.5809 30.8281 33.4654 30.6577C33.053 30.0297 33.053 30.0297 33.0602 29.7273C33.1261 29.536 33.2115 29.3812 33.3185 29.2093C33.3541 29.1441 33.3897 29.079 33.4263 29.0119C33.5069 28.8645 33.5892 28.718 33.6728 28.5723C33.8278 28.2974 33.9731 28.0182 34.1166 27.7372C34.1697 27.6335 34.2227 27.5298 34.2758 27.426C34.3024 27.3739 34.3291 27.3218 34.3566 27.2681C34.7632 26.4766 35.1801 25.6903 35.5974 24.9044C35.8021 24.5184 36.0042 24.1311 36.205 23.743C37.2232 21.7746 37.2232 21.7746 37.766 20.866C37.8215 20.866 37.877 20.866 37.9342 20.866C38.0454 21.01 38.0454 21.01 38.1727 21.2133C38.2201 21.2883 38.2675 21.3633 38.3163 21.4405C38.3672 21.5223 38.418 21.6041 38.4704 21.6883C38.5496 21.8141 38.5496 21.8141 38.6304 21.9423C38.7393 22.1152 38.8479 22.2882 38.9563 22.4614C39.1749 22.8104 39.3957 23.158 39.6164 23.5057C39.699 23.6361 39.7816 23.7665 39.8642 23.8969C40.2905 24.5694 40.7198 25.24 41.1488 25.9109C41.4441 26.3728 41.7391 26.8349 42.0342 27.297C42.2816 27.6843 42.529 28.0715 42.7765 28.4587C43.2798 29.246 43.7819 30.0339 44.2818 30.8233C44.6492 31.4034 45.0184 31.9823 45.3886 32.5607C45.6495 32.9685 45.9096 33.3768 46.1683 33.7861C46.2217 33.8704 46.2751 33.9547 46.3302 34.0415C46.4328 34.2035 46.5352 34.3657 46.6373 34.528C46.6835 34.6009 46.7298 34.6737 46.7775 34.7488C46.818 34.813 46.8585 34.8772 46.9002 34.9433C47.0117 35.1025 47.1283 35.2313 47.2706 35.3632C47.6024 34.8154 47.933 34.2668 48.2623 33.7175C48.4104 33.4706 48.559 33.2241 48.709 32.9784C48.8755 32.7056 49.0405 32.4318 49.2052 32.1579C49.2571 32.0738 49.309 31.9896 49.3625 31.9029C49.4095 31.8242 49.4564 31.7454 49.5049 31.6643C49.5466 31.5956 49.5884 31.5269 49.6314 31.456C49.7301 31.206 49.7091 31.0917 49.6258 30.8381C49.5279 30.6333 49.5279 30.6333 49.4014 30.428C49.3546 30.349 49.3078 30.27 49.2597 30.1886C49.2087 30.1039 49.1578 30.0193 49.1053 29.932C48.9969 29.7494 48.8885 29.5667 48.7801 29.3841C48.7246 29.291 48.6691 29.198 48.6119 29.1021C48.364 28.6853 48.1197 28.2664 47.8752 27.8475C47.4061 27.0458 46.9351 26.2451 46.4638 25.4446C46.0113 24.676 45.56 23.9067 45.1097 23.1368C44.7236 22.477 44.3361 21.8181 43.9482 21.1593C43.465 20.3387 42.983 19.5174 42.5022 18.6955C42.1161 18.0357 41.7286 17.3767 41.3407 16.718C40.8576 15.8974 40.3755 15.0761 39.8947 14.2541C39.539 13.6463 39.1821 13.0391 38.8248 12.4322C38.7341 12.2781 38.6434 12.1239 38.5527 11.9697C38.2864 11.5169 38.02 11.0642 37.7522 10.6122C37.6146 10.3798 37.4774 10.1472 37.3401 9.91458C37.2895 9.82946 37.2389 9.74433 37.1867 9.65663C37.1409 9.57897 37.0952 9.5013 37.048 9.42128C37.0078 9.35336 36.9676 9.28545 36.9261 9.21548C36.8407 9.0504 36.8407 9.0504 36.8407 8.8828C37.3759 8.80617 37.9029 8.77952 38.4431 8.76641C38.5338 8.76395 38.6246 8.76148 38.7181 8.75895C39.0163 8.75093 39.3146 8.74337 39.6128 8.73583C39.8206 8.73034 40.0283 8.72482 40.2361 8.71928C40.7818 8.7048 41.3275 8.69072 41.8731 8.67671C42.4294 8.66236 42.9857 8.64759 43.5419 8.63288C44.353 8.61151 45.164 8.59023 45.975 8.56936C46.1031 8.56603 46.1031 8.56603 46.2336 8.56263C46.3505 8.55964 46.3505 8.55964 46.4698 8.55659C46.5376 8.55484 46.6053 8.5531 46.6751 8.5513C46.8175 8.54829 46.96 8.54761 47.1024 8.54761Z" fill="url(#paint2_linear_83_542)"/>
<path d="M31.9629 12.1509C32.2175 12.3899 32.4115 12.635 32.6029 12.9263C32.6595 13.0118 32.7161 13.0973 32.7744 13.1854C32.8328 13.2744 32.8911 13.3633 32.9512 13.455C33.3411 14.0476 33.7379 14.6312 34.1592 15.2022C34.4468 15.5948 34.7203 15.997 34.9937 16.3995C35.2169 16.7278 35.4413 17.0543 35.6747 17.3755C35.7147 17.4318 35.7547 17.4882 35.7959 17.5462C35.8706 17.6511 35.9465 17.7551 36.0239 17.858C36.1235 18.0001 36.1235 18.0001 36.2526 18.2682C36.1389 18.7674 35.8673 19.2261 35.6375 19.6807C35.5931 19.7692 35.5486 19.8577 35.5029 19.9489C35.4086 20.1365 35.3141 20.3241 35.2195 20.5116C35.0775 20.7929 34.9361 21.0745 34.7948 21.3562C34.3901 22.161 33.9832 22.9642 33.5594 23.7593C33.0456 24.7234 32.5608 25.702 32.0733 26.6795C31.9354 26.956 31.7975 27.2324 31.6593 27.5087C31.5712 27.6848 31.4834 27.8609 31.3957 28.0372C31.2164 28.3958 31.0362 28.752 30.836 29.0996C30.8071 29.1501 30.7782 29.2006 30.7484 29.2527C30.6754 29.3779 30.6002 29.5019 30.5248 29.6258C30.4279 29.8296 30.4279 29.8296 30.4995 30.0355C30.6393 30.2922 30.782 30.5461 30.9328 30.7965C30.9642 30.849 30.9955 30.9015 31.0278 30.9556C31.1306 31.1278 31.234 31.2998 31.3373 31.4718C31.4098 31.5929 31.4823 31.7141 31.5548 31.8353C32.0669 32.6903 32.5849 33.5417 33.1049 34.3919C33.6297 35.2505 34.1448 36.1147 34.6591 36.9796C35.062 37.6571 35.4667 38.3336 35.8741 39.0084C36.2137 39.571 36.5521 40.1343 36.888 40.6991C36.9211 40.7548 36.9542 40.8104 36.9883 40.8677C37.1237 41.0954 37.2591 41.3232 37.3945 41.5509C37.7662 42.1763 38.14 42.8003 38.5197 43.421C38.553 43.4755 38.5864 43.53 38.6208 43.5862C38.7796 43.8457 38.9387 44.1049 39.0984 44.3638C39.1544 44.455 39.2104 44.5463 39.2682 44.6403C39.3174 44.7202 39.3667 44.8001 39.4175 44.8825C39.533 45.0838 39.533 45.0838 39.6171 45.3352C38.9157 45.3463 38.2144 45.3573 37.513 45.368C37.1871 45.373 36.8612 45.3781 36.5353 45.3832C36.4723 45.3842 36.4094 45.3852 36.3446 45.3862C36.2183 45.3882 36.092 45.3903 35.9656 45.3923C35.6542 45.3972 35.3427 45.4015 35.0312 45.4047C34.91 45.406 34.7887 45.4073 34.6674 45.4086C34.6088 45.4092 34.5502 45.4099 34.4898 45.4105C34.1211 45.4152 33.7535 45.4277 33.3853 45.4449C33.2517 45.4494 33.2517 45.4494 33.1154 45.4541C32.9544 45.4598 32.7935 45.4679 32.6329 45.4792C32.3221 45.4876 32.1293 45.4872 31.8845 45.2845C31.6332 44.9891 31.4377 44.6709 31.2785 44.3175C31.0201 43.7772 30.7058 43.28 30.3858 42.7741C30.2706 42.5879 30.1558 42.4016 30.0411 42.215C29.6955 41.654 29.3495 41.0932 29.0032 40.5325C28.947 40.4416 28.8909 40.3507 28.8331 40.257C28.4457 39.63 28.0571 39.0037 27.6677 38.3779C27.418 37.9764 27.1691 37.5745 26.9211 37.172C26.8635 37.0787 26.8059 36.9853 26.7466 36.8891C26.6371 36.7114 26.5277 36.5336 26.4184 36.3558C26.3141 36.1866 26.208 36.0183 26.1003 35.8512C25.9543 35.6185 25.8324 35.3809 25.7135 35.1334C25.3427 34.3761 25.3427 34.3761 24.7144 33.847C24.1955 33.7033 23.6637 33.7337 23.1305 33.7501C22.953 33.7498 22.7756 33.7487 22.5981 33.747C22.1186 33.7443 21.6398 33.7513 21.1604 33.7602C20.6586 33.7679 20.1569 33.7664 19.655 33.766C18.7059 33.7665 17.757 33.7751 16.8079 33.7866C15.7269 33.7993 14.646 33.803 13.565 33.8059C11.3424 33.8122 9.11996 33.8297 6.89746 33.8548C7.01696 33.6027 7.13657 33.3507 7.2562 33.0988C7.28966 33.0282 7.32311 32.9576 7.35758 32.8849C7.65626 32.256 7.96465 31.6323 8.27743 31.0102C8.33273 30.9 8.38802 30.7897 8.4433 30.6795C8.55711 30.4526 8.67104 30.2257 8.78506 29.9989C8.93132 29.708 9.07726 29.4169 9.22313 29.1257C9.33629 28.9 9.44961 28.6743 9.56298 28.4486C9.61696 28.3411 9.67089 28.2336 9.72476 28.126C9.79923 27.9774 9.87394 27.8289 9.94866 27.6805C9.99102 27.5961 10.0334 27.5118 10.077 27.4249C10.1778 27.2347 10.1778 27.2347 10.2619 27.1509C10.4365 27.1417 10.6114 27.1386 10.7862 27.1376C10.8415 27.1372 10.8969 27.1368 10.954 27.1364C11.1408 27.1351 11.3277 27.1344 11.5146 27.1337C11.648 27.1329 11.7815 27.132 11.9149 27.1312C12.2783 27.1289 12.6416 27.1271 13.005 27.1255C13.3843 27.1236 13.7637 27.1213 14.143 27.1191C14.8618 27.1149 15.5806 27.1111 16.2994 27.1075C17.1175 27.1034 17.9356 27.0988 18.7538 27.0941C20.4372 27.0846 22.1206 27.0756 23.804 27.0671C23.8446 26.9909 23.8851 26.9147 23.9269 26.8362C24.0799 26.5489 24.233 26.2616 24.386 25.9743C24.4518 25.8509 24.5176 25.7274 24.5833 25.6039C25.0889 24.6543 25.6016 23.7088 26.1202 22.7661C26.3429 22.3603 26.5638 21.9535 26.7847 21.5468C26.8529 21.4213 26.8529 21.4213 26.9225 21.2933C27.0146 21.1238 27.1066 20.9543 27.1987 20.7849C27.4268 20.3649 27.6551 19.945 27.8834 19.5252C27.9746 19.3576 28.0657 19.19 28.1568 19.0224C28.7035 18.0168 29.2503 17.0112 29.797 16.0056C29.8648 15.881 29.8648 15.881 29.9339 15.7538C30.0243 15.5876 30.1147 15.4213 30.2052 15.2551C30.4443 14.8157 30.6827 14.3759 30.92 13.9355C30.9696 13.8437 31.0192 13.7519 31.0703 13.6573C31.1655 13.4811 31.2605 13.3048 31.3552 13.1283C31.4195 13.0094 31.4195 13.0094 31.4851 12.888C31.5414 12.7835 31.5414 12.7835 31.5989 12.6768C31.7083 12.4898 31.829 12.3211 31.9629 12.1509Z" fill="#EC0373"/>
</g>
<defs>
<linearGradient id="paint0_linear_83_542" x1="25.7382" y1="-0.418999" x2="-1.72928" y2="32.6148" gradientUnits="userSpaceOnUse">
<stop stop-color="white"/>
<stop offset="1" stop-color="white" stop-opacity="0"/>
</linearGradient>
<linearGradient id="paint1_linear_83_542" x1="0.251953" y1="45.9219" x2="39.277" y2="49.9318" gradientUnits="userSpaceOnUse">
<stop stop-color="white"/>
<stop offset="1" stop-color="white" stop-opacity="0"/>
</linearGradient>
<linearGradient id="paint2_linear_83_542" x1="52.4435" y1="45.3353" x2="36.353" y2="8.50344" gradientUnits="userSpaceOnUse">
<stop stop-color="white"/>
<stop offset="1" stop-color="white" stop-opacity="0"/>
</linearGradient>
<clipPath id="clip0_83_542">
<rect width="212" height="60" fill="white"/>
</clipPath>
</defs>
</svg>
